<mxfile host="app.diagrams.net" agent="Mozilla/5.0 (Windows NT 10.0; Win64; x64) AppleWebKit/537.36 (KHTML, like Gecko) Chrome/135.0.0.0 Safari/537.36 Edg/135.0.0.0" version="26.2.14">
  <diagram id="C5RBs43oDa-KdzZeNtuy" name="Page-1">
    <mxGraphModel dx="1418" dy="752" grid="1" gridSize="10" guides="1" tooltips="1" connect="1" arrows="1" fold="1" page="1" pageScale="1" pageWidth="827" pageHeight="1169" math="0" shadow="0">
      <root>
        <mxCell id="WIyWlLk6GJQsqaUBKTNV-0" />
        <mxCell id="WIyWlLk6GJQsqaUBKTNV-1" parent="WIyWlLk6GJQsqaUBKTNV-0" />
        <mxCell id="WIyWlLk6GJQsqaUBKTNV-2" value="" style="rounded=0;html=1;jettySize=auto;orthogonalLoop=1;fontSize=11;endArrow=block;endFill=0;endSize=8;strokeWidth=1;shadow=0;labelBackgroundColor=none;edgeStyle=orthogonalEdgeStyle;" parent="WIyWlLk6GJQsqaUBKTNV-1" source="WIyWlLk6GJQsqaUBKTNV-3" edge="1">
          <mxGeometry relative="1" as="geometry">
            <mxPoint x="414" y="110" as="targetPoint" />
          </mxGeometry>
        </mxCell>
        <mxCell id="WIyWlLk6GJQsqaUBKTNV-3" value="Start" style="rounded=1;whiteSpace=wrap;html=1;fontSize=12;glass=0;strokeWidth=1;shadow=0;" parent="WIyWlLk6GJQsqaUBKTNV-1" vertex="1">
          <mxGeometry x="354" y="20" width="120" height="40" as="geometry" />
        </mxCell>
        <mxCell id="TbqfFHRrbxU-Mn83PtUF-0" value="Check Vector data base folder" style="rounded=1;whiteSpace=wrap;html=1;" vertex="1" parent="WIyWlLk6GJQsqaUBKTNV-1">
          <mxGeometry x="354" y="110" width="120" height="60" as="geometry" />
        </mxCell>
        <mxCell id="TbqfFHRrbxU-Mn83PtUF-1" value="" style="endArrow=classic;html=1;rounded=0;exitX=0.5;exitY=1;exitDx=0;exitDy=0;" edge="1" parent="WIyWlLk6GJQsqaUBKTNV-1" source="TbqfFHRrbxU-Mn83PtUF-0" target="TbqfFHRrbxU-Mn83PtUF-2">
          <mxGeometry width="50" height="50" relative="1" as="geometry">
            <mxPoint x="584" y="350" as="sourcePoint" />
            <mxPoint x="414" y="230" as="targetPoint" />
          </mxGeometry>
        </mxCell>
        <mxCell id="TbqfFHRrbxU-Mn83PtUF-2" value="Walk Through &quot;Docs/&quot;" style="rounded=1;whiteSpace=wrap;html=1;" vertex="1" parent="WIyWlLk6GJQsqaUBKTNV-1">
          <mxGeometry x="354" y="200" width="120" height="60" as="geometry" />
        </mxCell>
        <mxCell id="TbqfFHRrbxU-Mn83PtUF-3" value="" style="endArrow=classic;html=1;rounded=0;exitX=0.5;exitY=1;exitDx=0;exitDy=0;" edge="1" parent="WIyWlLk6GJQsqaUBKTNV-1" source="TbqfFHRrbxU-Mn83PtUF-2" target="TbqfFHRrbxU-Mn83PtUF-4">
          <mxGeometry width="50" height="50" relative="1" as="geometry">
            <mxPoint x="584" y="350" as="sourcePoint" />
            <mxPoint x="414" y="300" as="targetPoint" />
          </mxGeometry>
        </mxCell>
        <mxCell id="TbqfFHRrbxU-Mn83PtUF-5" style="edgeStyle=orthogonalEdgeStyle;rounded=0;orthogonalLoop=1;jettySize=auto;html=1;" edge="1" parent="WIyWlLk6GJQsqaUBKTNV-1" source="TbqfFHRrbxU-Mn83PtUF-25" target="TbqfFHRrbxU-Mn83PtUF-6">
          <mxGeometry relative="1" as="geometry">
            <mxPoint x="414" y="470" as="targetPoint" />
          </mxGeometry>
        </mxCell>
        <mxCell id="TbqfFHRrbxU-Mn83PtUF-4" value="Prepare Text, Metadata and Ids" style="rounded=1;whiteSpace=wrap;html=1;" vertex="1" parent="WIyWlLk6GJQsqaUBKTNV-1">
          <mxGeometry x="354" y="300" width="120" height="60" as="geometry" />
        </mxCell>
        <mxCell id="TbqfFHRrbxU-Mn83PtUF-9" value="" style="edgeStyle=orthogonalEdgeStyle;rounded=0;orthogonalLoop=1;jettySize=auto;html=1;" edge="1" parent="WIyWlLk6GJQsqaUBKTNV-1" source="TbqfFHRrbxU-Mn83PtUF-6" target="TbqfFHRrbxU-Mn83PtUF-8">
          <mxGeometry relative="1" as="geometry" />
        </mxCell>
        <mxCell id="TbqfFHRrbxU-Mn83PtUF-10" style="edgeStyle=orthogonalEdgeStyle;rounded=0;orthogonalLoop=1;jettySize=auto;html=1;entryX=0.5;entryY=0;entryDx=0;entryDy=0;" edge="1" parent="WIyWlLk6GJQsqaUBKTNV-1" source="TbqfFHRrbxU-Mn83PtUF-6" target="TbqfFHRrbxU-Mn83PtUF-11">
          <mxGeometry relative="1" as="geometry">
            <mxPoint x="584" y="530" as="targetPoint" />
          </mxGeometry>
        </mxCell>
        <mxCell id="TbqfFHRrbxU-Mn83PtUF-14" style="edgeStyle=orthogonalEdgeStyle;rounded=0;orthogonalLoop=1;jettySize=auto;html=1;entryX=0.5;entryY=0;entryDx=0;entryDy=0;" edge="1" parent="WIyWlLk6GJQsqaUBKTNV-1" source="TbqfFHRrbxU-Mn83PtUF-6" target="TbqfFHRrbxU-Mn83PtUF-13">
          <mxGeometry relative="1" as="geometry" />
        </mxCell>
        <mxCell id="TbqfFHRrbxU-Mn83PtUF-6" value="Choose Model for the embeddings and Chroma database" style="rounded=1;whiteSpace=wrap;html=1;" vertex="1" parent="WIyWlLk6GJQsqaUBKTNV-1">
          <mxGeometry x="354" y="460" width="120" height="60" as="geometry" />
        </mxCell>
        <mxCell id="TbqfFHRrbxU-Mn83PtUF-18" style="edgeStyle=orthogonalEdgeStyle;rounded=0;orthogonalLoop=1;jettySize=auto;html=1;" edge="1" parent="WIyWlLk6GJQsqaUBKTNV-1" source="TbqfFHRrbxU-Mn83PtUF-8">
          <mxGeometry relative="1" as="geometry">
            <mxPoint x="414" y="700" as="targetPoint" />
          </mxGeometry>
        </mxCell>
        <mxCell id="TbqfFHRrbxU-Mn83PtUF-8" value="Google Generative Ai" style="rounded=1;whiteSpace=wrap;html=1;" vertex="1" parent="WIyWlLk6GJQsqaUBKTNV-1">
          <mxGeometry x="354" y="570" width="120" height="60" as="geometry" />
        </mxCell>
        <mxCell id="TbqfFHRrbxU-Mn83PtUF-19" style="edgeStyle=orthogonalEdgeStyle;rounded=0;orthogonalLoop=1;jettySize=auto;html=1;entryX=0.5;entryY=0;entryDx=0;entryDy=0;" edge="1" parent="WIyWlLk6GJQsqaUBKTNV-1" source="TbqfFHRrbxU-Mn83PtUF-11" target="TbqfFHRrbxU-Mn83PtUF-15">
          <mxGeometry relative="1" as="geometry">
            <Array as="points">
              <mxPoint x="564" y="670" />
              <mxPoint x="414" y="670" />
            </Array>
          </mxGeometry>
        </mxCell>
        <mxCell id="TbqfFHRrbxU-Mn83PtUF-11" value="Local Hugging Face Model (Local)" style="rounded=1;whiteSpace=wrap;html=1;" vertex="1" parent="WIyWlLk6GJQsqaUBKTNV-1">
          <mxGeometry x="504" y="570" width="120" height="60" as="geometry" />
        </mxCell>
        <mxCell id="TbqfFHRrbxU-Mn83PtUF-16" style="edgeStyle=orthogonalEdgeStyle;rounded=0;orthogonalLoop=1;jettySize=auto;html=1;entryX=0.5;entryY=0;entryDx=0;entryDy=0;" edge="1" parent="WIyWlLk6GJQsqaUBKTNV-1" source="TbqfFHRrbxU-Mn83PtUF-13" target="TbqfFHRrbxU-Mn83PtUF-15">
          <mxGeometry relative="1" as="geometry">
            <Array as="points">
              <mxPoint x="264" y="670" />
              <mxPoint x="414" y="670" />
            </Array>
          </mxGeometry>
        </mxCell>
        <mxCell id="TbqfFHRrbxU-Mn83PtUF-13" value="Hugging Face Online" style="rounded=1;whiteSpace=wrap;html=1;" vertex="1" parent="WIyWlLk6GJQsqaUBKTNV-1">
          <mxGeometry x="204" y="570" width="120" height="60" as="geometry" />
        </mxCell>
        <mxCell id="TbqfFHRrbxU-Mn83PtUF-20" style="edgeStyle=orthogonalEdgeStyle;rounded=0;orthogonalLoop=1;jettySize=auto;html=1;" edge="1" parent="WIyWlLk6GJQsqaUBKTNV-1" source="TbqfFHRrbxU-Mn83PtUF-15" target="TbqfFHRrbxU-Mn83PtUF-21">
          <mxGeometry relative="1" as="geometry">
            <mxPoint x="414" y="820" as="targetPoint" />
          </mxGeometry>
        </mxCell>
        <mxCell id="TbqfFHRrbxU-Mn83PtUF-15" value="Create Chroma Database" style="rounded=1;whiteSpace=wrap;html=1;" vertex="1" parent="WIyWlLk6GJQsqaUBKTNV-1">
          <mxGeometry x="354" y="800" width="120" height="60" as="geometry" />
        </mxCell>
        <mxCell id="TbqfFHRrbxU-Mn83PtUF-23" style="edgeStyle=orthogonalEdgeStyle;rounded=0;orthogonalLoop=1;jettySize=auto;html=1;" edge="1" parent="WIyWlLk6GJQsqaUBKTNV-1" source="TbqfFHRrbxU-Mn83PtUF-21" target="TbqfFHRrbxU-Mn83PtUF-24">
          <mxGeometry relative="1" as="geometry">
            <mxPoint x="414" y="1020" as="targetPoint" />
          </mxGeometry>
        </mxCell>
        <mxCell id="TbqfFHRrbxU-Mn83PtUF-21" value="Add Embedded Chunks to the Vector Database" style="rounded=1;whiteSpace=wrap;html=1;" vertex="1" parent="WIyWlLk6GJQsqaUBKTNV-1">
          <mxGeometry x="354" y="890" width="120" height="60" as="geometry" />
        </mxCell>
        <mxCell id="TbqfFHRrbxU-Mn83PtUF-22" value="Create Embeddings" style="rounded=1;whiteSpace=wrap;html=1;" vertex="1" parent="WIyWlLk6GJQsqaUBKTNV-1">
          <mxGeometry x="354" y="700" width="120" height="60" as="geometry" />
        </mxCell>
        <mxCell id="TbqfFHRrbxU-Mn83PtUF-24" value="Query Results" style="rounded=1;whiteSpace=wrap;html=1;" vertex="1" parent="WIyWlLk6GJQsqaUBKTNV-1">
          <mxGeometry x="354" y="980" width="120" height="60" as="geometry" />
        </mxCell>
        <mxCell id="TbqfFHRrbxU-Mn83PtUF-26" value="" style="edgeStyle=orthogonalEdgeStyle;rounded=0;orthogonalLoop=1;jettySize=auto;html=1;" edge="1" parent="WIyWlLk6GJQsqaUBKTNV-1" source="TbqfFHRrbxU-Mn83PtUF-4" target="TbqfFHRrbxU-Mn83PtUF-25">
          <mxGeometry relative="1" as="geometry">
            <mxPoint x="414" y="460" as="targetPoint" />
            <mxPoint x="414" y="360" as="sourcePoint" />
          </mxGeometry>
        </mxCell>
        <mxCell id="TbqfFHRrbxU-Mn83PtUF-25" value="Semantic Chunking of Documents" style="rounded=1;whiteSpace=wrap;html=1;" vertex="1" parent="WIyWlLk6GJQsqaUBKTNV-1">
          <mxGeometry x="354" y="380" width="120" height="60" as="geometry" />
        </mxCell>
      </root>
    </mxGraphModel>
  </diagram>
</mxfile>
